<?xml version="1.0" encoding="UTF-8"?>
<!DOCTYPE svg PUBLIC "-//W3C//DTD SVG 1.1//EN" "http://www.w3.org/Graphics/SVG/1.1/DTD/svg11.dtd">
<!-- Creator: CorelDRAW (Evaluation Version) -->
<svg xmlns="http://www.w3.org/2000/svg" xml:space="preserve" width="210mm" height="297mm" version="1.1" style="shape-rendering:geometricPrecision; text-rendering:geometricPrecision; image-rendering:optimizeQuality; fill-rule:evenodd; clip-rule:evenodd"
viewBox="0 0 21000 29700"
 xmlns:xlink="http://www.w3.org/1999/xlink"
 xmlns:xodm="http://www.corel.com/coreldraw/odm/2003">
 <defs>
  <style type="text/css">
   <![CDATA[
    .str0 {stroke:#8D0283;stroke-width:20;stroke-miterlimit:22.9256}
    .fil0 {fill:#8D0283}
    .fil3 {fill:#9B0C5B}
    .fil4 {fill:#D589B8}
    .fil1 {fill:#E5541C}
    .fil5 {fill:#F1B0B5}
    .fil2 {fill:#FEEECD}
   ]]>
  </style>
 </defs>
 <g id="Layer_x0020_1">
  <metadata id="CorelCorpID_0Corel-Layer"/>
  <g id="_105553247628608">
   <path class="fil0" d="M13537.33 15576.06l-6.43 731.23 222.99 -0.12c26.81,91.07 23.63,425.83 7.84,524.17 -48.45,0.23 -962.13,19.43 -1001.21,-22.3 -26.88,-28.72 -17.91,-214.52 -18.72,-263.4l-12.04 -898.63c7.82,-282.38 -306.12,-290.4 -325.17,-24.32 -9.35,130.66 -13.77,583.42 6.22,689.34l63.61 16.84c65.22,7.74 123.71,-15.9 153.67,15.33 24.35,25.39 11.91,172.22 12.04,217.35 0.77,265.66 67.46,264.48 -187.03,262.62 -316.87,-2.31 -657.46,13.66 -972.05,-2.42l4.58 -490.07 158 -3.81 -6.85 -881.91 -169.16 -11.8 0.23 -486.8 740.99 3.12 85.48 207.11c121.45,-114.34 250.53,-270.2 526.24,-264.79 127.38,2.5 242.17,24.74 334.59,76.5 121.86,68.23 121.28,105.92 210.04,174.31 87.88,-36.4 211.83,-217.3 500.6,-256.58 226.24,-30.76 474.03,57.76 585.73,170.22 308.28,310.37 182.76,760.33 231.82,1251.95l188.27 5.39 -3.01 505.98 -985.81 -4.26c-8.7,-314.48 -4.51,-640.79 -1.77,-955.94 1.34,-153.88 9.89,-313.89 -74.8,-394.98 -92.39,-88.49 -240.34,-17.5 -268.89,110.67zm1466.5 -645.13l896.59 0.36 30.32 1375.42 185.16 13.68 12.18 477.98 -1096.9 19.1 1.67 -496.79 150.16 -0.1 -13.21 -896.83 -172.91 -20 6.94 -472.82zm-5810.59 150.3c141.83,-105.44 459.8,-223.64 676.77,-251.72 286.01,-37.01 572.41,20.5 790.28,119.61 555.81,252.83 425.62,711.65 426.67,1387.52l224.7 11.63 2.85 477.31 -841.64 -9.91c-20.47,-50.46 -54.08,-118.87 -79.82,-157.76 -116.37,77.35 -130.15,141.97 -309.96,191.46 -386.6,106.37 -952.89,-70.58 -980.28,-545.6 -28,-485.76 373.7,-741.28 803.05,-740.89 93.11,0.09 150.09,8.18 225.27,37.45 62.54,24.37 141.53,73.78 171.39,81.69 14.21,-281.99 -87.22,-330.11 -378.04,-328.39 -325.44,1.91 -457.05,138.58 -580.63,150.55l-150.61 -422.95zm-3026 191.33c-29.26,-115.35 -71.38,-458.45 -98.03,-515.21l-31.13 1449.45c0.53,-2.17 2.61,8 4.81,11.59 31.57,30.17 157.52,2.6 190.58,34.83 35.9,35.01 -3.23,456.23 -6.79,475.09l-1047.68 -39.69c3.54,-126.58 -16.37,-363.82 24.46,-462.92 21.07,-11.04 -5.17,-4.98 43.41,-12.72 52.07,-8.31 122.18,6.46 144.62,-14.11 31.3,-64.85 74.24,-1504.75 50.63,-1646.05l-200.35 -9.33 9.5 -469.91c189.1,-42.35 1206.83,21.85 1483.66,27.49l341.39 1372.53c58.34,-29.95 27.72,19.92 57.68,-80.17 8.5,-28.39 11.68,-54.31 20.01,-84.35 18.14,-65.46 33.28,-99.03 52.31,-169.75 87.8,-326.26 232.64,-716.73 297.41,-1013.58 182,-3.35 1403.06,11.82 1470.14,53.59 38.5,34.04 6.08,434.2 2.34,472.37l-209.6 -3.12 -38.89 1655.07c289.83,4.85 210.71,-41.49 203.78,480.4 -95.31,28.55 -1065.37,-12.81 -1241.46,-20.73l15.7 -483.8c77.71,-5.03 141.73,10.88 216.25,-14.36l31.6 -1461.31c-37.27,61.97 -97.39,388.55 -133.09,495.21 -69.81,208.58 -424.01,1409.18 -453.55,1434.56l-97.63 20.79c-112.22,2.86 -689.1,-11.65 -711.43,-31.45l-390.65 -1450.41zm9253.35 -1271.28c256.89,-57.68 453.83,103.79 511.19,278.29 78.72,239.53 -110.31,426.44 -301.18,462.83 -577.87,110.18 -733.02,-623.7 -210.01,-741.12zm-631.79 -376.45c-289.82,293.4 -981.98,440.76 -1481.07,220.28 -478.22,-211.26 -662.84,-809.12 -489.58,-1281.99 357.47,-975.52 2271.62,-789.03 1939.98,560.59l-1233.21 14.36c25.88,200.05 162.34,295.43 399.91,299.17 343.73,5.39 396.37,-113.58 548.14,-163.69 49.03,29.07 295.85,296.66 315.83,351.28zm-2485.52 -2167.29l0.8 553.48 353.5 2.37c31.83,102.22 20.43,364.61 12.25,495.29l-362.51 1.06c-19.43,213.24 -4.26,477.88 -6.45,697.51 -4.06,408.62 117.88,246.9 370.23,222.23 -0.69,507.08 74.62,490.47 -266.74,525.68 -1130.28,116.56 -727.02,-685.82 -826.55,-1448.04l-205.14 -3.21 1.19 -485.01 209.08 -2.81 8.8 -351.12 711.54 -207.43zm-2119.81 543.19c21.5,-447.33 -58.36,-314.96 229.03,-411.45 107.64,-36.14 398.49,-131.04 494.17,-143.69l2.47 567.35 365.64 6.63 -6.1 483.31 -363.45 -1.06 -10.51 639.44c-3.61,466.9 91.67,325.02 366.12,277.34l-1.69 476.02c-248.72,76.15 -642.97,110.56 -869.07,-22.74 -205.11,-120.95 -216.33,-447.66 -213.48,-755.25l4.11 -617.81c-132.49,-9.53 -210.34,36.5 -209.47,-81.73 3.88,-513.4 -45.72,-402.92 212.23,-416.36zm5604.26 221.31c84.61,-101.43 160,-355.29 596.45,-327.17l11.54 670.85c-227.21,22.33 -419.92,38.44 -496.42,198.2 -74.66,155.93 -46,408.61 -43.63,613.89l201.11 10.16 -1.46 483.74 -1094.19 20.04 4.21 -496.53 158.82 -4.65 -18.83 -895.85 -169.41 -5.93 -5.93 -480.91 736.35 -3.96 121.39 218.12zm-8031.92 -117.62c202.18,-101.14 461.55,-220.21 731.12,-234.23 309.31,-16.1 624.87,48.31 821.98,171.72 212.66,133.16 333.73,297.25 332.91,643.82 -1.95,824.65 -98.98,715.25 219.9,720.26l-7.44 475.71c-158.79,-2.4 -715.32,10.88 -818.59,-24.09 -80.28,-48.73 -33.67,-103.4 -109.12,-138.49 -26.19,-15.13 -7.81,0.19 -52.11,40.37 -370.77,336.22 -1199.31,134.67 -1228.95,-413.76 -43.78,-810.67 1022.19,-850.31 1197.54,-608.87 62.92,-288.29 -106.34,-344.19 -377.38,-340.3 -115.33,1.64 -223.07,19.01 -317.14,53.22 -71.63,26.05 -189.67,86.19 -248.13,93.4 -31.61,-54.49 -146.32,-384.94 -144.59,-438.76zm-397 83.62c-76.17,120.24 -159.78,139.05 -241.76,190.58 -30.32,19.05 -18.51,11.67 -36.61,24.79l24.29 17.66c4.14,2.79 18.52,12.56 23.2,15.4 207.82,126.86 417.65,207.99 404.94,635.17 -24.21,813.77 -827.42,739.81 -1484.79,706.02 -349.35,-17.96 -741.05,-2.78 -1080.86,-38.66 3.19,-223.22 -43.49,-465.82 72.06,-481.8l164.2 4c12.6,-257.87 91.25,-1496.04 46.97,-1665.19l-211.05 -5.7 17.8 -479.95c412.65,6.58 1596.66,22.46 1927.15,125.24 541.18,168.28 527.14,711.48 374.46,952.44zm2714.09 -4664.49c-267.64,-3.73 -525.4,-28.32 -783.4,-72.69 -627.87,-107.95 -405.73,-191.56 -1078.07,93.66 -74.79,31.72 -165.46,73.95 -239.23,104.63 -87.17,36.25 -159.94,78.69 -234.41,112.02 -177.47,79.43 -294.22,149.18 -465.51,228.73 -162.54,75.5 -311.38,151.16 -461.14,233.44 -161.09,88.5 -1037.26,539.73 -1107.77,624.38 -60.92,73.13 -98.03,122.32 -156.71,188.74 -109.55,124.05 -202.64,250.22 -305.76,384.87 -106.83,139.51 -210.32,246.79 -312.1,378.34 -104.15,134.6 -194.06,245.18 -297.27,393.36 -47.55,68.27 -90.55,125.32 -136.52,207.24 -41.65,74.21 -88.71,135.98 -133.64,212.24 -89.47,151.9 -158.04,283.17 -238.16,453.66 -73.97,157.41 -147.99,300.08 -224.81,464.87 -93.57,200.74 -43.76,331.8 -42.64,600.01 2.46,585.87 -31.64,1258.49 -248.91,1818.48 -34.07,87.82 -50.11,173.9 -84.8,261.47 -324.82,819.92 -250.48,414.2 -115.86,1349.43l130.82 547.35c58.24,350.92 229.11,695.38 341.1,1026.98 22.61,66.96 31.37,64.23 51.89,115.47 19.25,48.07 20.25,88.54 37.73,135.64 27.34,73.67 55.21,177.07 86.74,256.69 31.01,78.25 46.87,179.93 108.26,233.81 145.21,127.46 404.92,302.27 585.94,458.55 261.11,225.44 471.66,431.61 692,696.86 355.69,428.19 648.28,973.71 968.26,1445.86 136.14,200.88 432.14,292.62 673.28,376.4l527.4 170.3c349.33,125.72 661.42,259.63 990.11,417.86 487.19,234.52 444.49,-11.81 1154.59,-9.47 717.85,2.37 1098.55,202.97 1705.03,403.8 247.42,81.94 275.01,112.39 563.03,35.83l548.62 -144.79c98.71,-29.3 170.63,-57.16 264.95,-84.99 253.4,-74.77 486.75,-200.65 724.92,-311.45 83.46,-38.83 161.83,-68.28 238.92,-109.12 232.66,-123.3 1205.85,-627.34 1260.88,-813.79l160.94 -477.06c29.73,-93.39 81.12,-182.37 136.4,-262.46 192.84,-279.41 419.9,-459.17 775.72,-610.1 118.67,-50.33 268.65,-79.81 390.78,-129.99 25.7,-10.54 34.05,-15.09 62.7,-23.7 4.63,-1.39 9.37,-2.42 14.09,-3.76l81.09 -24.91c72.12,-32.74 207.34,-83.28 252.64,-142.83 265.8,-349.51 491.99,-709.97 698.57,-1112.76l102.63 -206.43c1.8,-3.22 4.3,-7.49 6.01,-10.78l135.65 -315.65c1.71,-3.59 4,-7.88 5.72,-11.46 99.67,-206.83 189.98,-448.07 253.11,-671.34 60.93,-215.56 49.85,-188.65 -6.29,-410.11 -73.82,-291.19 -112.32,-603.61 -119.15,-907.86 -11.08,-493.33 -43.55,-1000.49 -18.87,-1496.21 29.88,-600.1 78.43,-982.36 -70.06,-1581.64 -54.29,-219.02 -89.19,-483.9 -153.47,-699.78 -32.39,-108.75 -56.84,-208.88 -91.87,-320.25 -106.32,-338.07 -327.51,-435.39 -631.32,-667.21 -341.24,-260.37 -652.78,-457.06 -1067.48,-659.89 -425.66,-208.18 -661.48,-419.07 -923.67,-797.63 -69.04,-99.68 -262.8,-488.45 -317.02,-526.22 -71.29,-49.64 -244.09,-67.87 -338.72,-101.66 -297.56,-106.24 -651.2,-209.95 -916.14,-382.84l-560.69 -313.51c-175.98,-88.24 -406.65,-188.81 -610.8,-248.24 -391,-113.79 -347.7,-80.31 -729.72,-2.57 -417.93,85.05 -1089.46,240.11 -1508.54,234.18z"/>
   <path class="fil1" d="M9091.13 21626.56c101.43,-41.51 491.49,-74.94 626.52,-78.49 686.43,-18.11 1062.12,178.52 1637.68,360.35 119.67,37.81 94.78,46.79 108.78,51.89 -345.22,49.85 -964.08,32.77 -1291.01,-31.94 -544.7,-107.82 -504.03,-101.5 -975.04,-245.1 -109.29,-33.33 -103.66,-54.62 -106.93,-56.71zm-2432.27 -806.56c82.92,6.15 284.78,125.22 511.58,172.93 163.96,34.49 366.78,107.51 511.15,171.02 97.27,42.79 855.07,350.25 941.71,423.62 -115.15,94.34 -504.32,66.23 -652.15,59.64 -188.29,-8.41 -406.61,-104.14 -548.9,-170.01 -339.38,-157.11 -591.35,-378.01 -763.39,-657.2zm8168.36 240.47c-145.62,206.42 -136.4,269.94 -395.5,491.33 -152.74,130.5 -356.94,247.65 -580.72,320.78 -224.44,73.36 -485.56,133.02 -734.58,168.71 -193.85,27.79 -690.96,46.92 -866.8,-0.95 -10.44,-23.78 -40.36,33.04 -2.03,-34.6 -83.59,4.33 -54.08,27.62 -129.46,16.35 -50.26,-7.51 -90.45,-48.9 -131.06,-28.17 617.34,-151.04 1091,-303.33 1590.97,-543.91 323.52,-155.69 751.7,-375.62 1050.32,-561.93 71.5,-44.59 264.93,-186.23 331.78,-200.98 -20.24,54.12 -28.6,122.2 -52.72,187.8 -25.39,69.1 -57.97,105.35 -80.2,185.57zm-8622.88 -653.29c-286.3,-79.56 -1215.62,-926.96 -1460.84,-1240.23 -82.79,-105.78 -145.16,-199.81 -223.91,-311.02 -85.68,-121.02 -294.13,-598.66 -302.13,-787.42 105.87,26.69 246.23,168.31 329.66,237.42 445.48,369.1 667.9,575.84 1011.92,1051.78l139.67 205.56c2.01,3.14 4.69,7.41 6.77,10.48l128.22 199.08c2.07,3.07 4.88,7.32 6.96,10.39l317.18 510.62c30.92,44.63 39.82,51.81 46.5,113.34zm8995.09 -48.43c1.26,-113.91 135.39,-445.13 183.43,-532.37 147.66,-268.13 467.84,-556.63 784.28,-664.77 148.02,-50.59 444.4,-172.24 556.47,-190.58 -13.59,70.15 -25.68,64.34 -64.26,108.17 -138.8,157.71 -173.71,212.58 -347.73,377.95l-294.49 259.23c-3.67,3.46 -13.67,13.93 -17.19,17.5 -2.5,2.52 -5.73,6.47 -8.22,9l-25.86 25.63c-2.67,2.33 -6.76,5.47 -9.51,7.73 -110.11,91.02 -661.85,564.97 -756.92,582.51zm2995.13 -3227.03c9.18,154.69 -137.26,462.96 -205.88,610.02l-131.27 215.26c-19.59,30.28 -6.49,18.01 -39.19,51.21 -3.63,3.68 -14.66,13.76 -18.3,16.96 -2.6,2.28 -7.28,5.75 -9.65,7.75 -2.36,1.98 -7.9,5.82 -9.83,7.41 -1.91,1.58 -6.36,5.11 -9.41,7.79 -95.76,103.32 -76.98,110.44 -234.63,264.65 -74.53,72.89 -176.25,189.5 -285.74,209.52 32.44,-85.21 84.64,-156.23 133.85,-238.24 215.68,-359.4 464.81,-799.99 618.36,-1191.15 33.55,-85.5 85.63,-171.68 108.86,-251.72 12.57,-43.33 24.34,-97.14 38.17,-137.53 28.86,-84.26 34.98,-82.34 76.65,-105.8 7.74,212.94 -16.46,340.25 -31.99,533.87zm-15395.5 -1235.91c9.85,-224.3 376.76,-880.81 400.73,-892.01 38.15,259.6 88.68,476.59 135.94,736.44 42.79,235.32 119.58,460.86 179.8,685.38 74.98,279.53 433.86,1170.96 437.42,1292.9 -61.9,-10.34 -345.26,-221.72 -411.3,-267.27 -173.73,-119.83 -271.82,-142.55 -367.78,-300.2 -0.37,48.01 3.71,7.21 -17.81,24.21 -111.75,-149.79 -86.29,-26.43 -288.42,-419.16 -46.44,-90.24 -76.19,-186.19 -76.77,-299.85 -0.59,-112.12 28.54,-68.83 -5.11,-178.62 -26.33,-85.86 -40.49,-190.24 -22.96,-293.8l36.26 -88.02zm15444.86 81.56c-93.74,-166.62 -163.25,-1350.38 -143.34,-1634.32 36.78,34.27 58.37,114.21 85.99,165.93 242.19,453.61 183.3,997.4 57.35,1468.39zm-15021.74 -2152.15c3.69,-390.95 68.17,-701.93 180.16,-1019.36 62.43,-176.97 228.48,-751.46 322.94,-858.54 104.61,145.83 -12.2,1139.85 -73.84,1400.33 -28.89,122.13 -247.13,1065.84 -387.66,1142.4 -52.99,-139.55 -42.97,-477.38 -41.6,-664.83zm6850.72 -6301.67c419.08,5.93 1090.61,-149.13 1508.54,-234.18 382.02,-77.74 338.72,-111.22 729.72,2.57 204.15,59.43 434.82,160 610.8,248.24l560.69 313.51c264.94,172.89 618.58,276.6 916.14,382.84 94.63,33.79 267.43,52.02 338.72,101.66 54.22,37.77 247.98,426.54 317.02,526.22 262.19,378.56 498.01,589.45 923.67,797.63 414.7,202.83 726.24,399.52 1067.48,659.89 303.81,231.82 525,329.14 631.32,667.21 35.03,111.37 59.48,211.5 91.87,320.25 64.28,215.88 99.18,480.76 153.47,699.78 148.49,599.28 99.94,981.54 70.06,1581.64 -24.68,495.72 7.79,1002.88 18.87,1496.21 6.83,304.25 45.33,616.67 119.15,907.86 56.14,221.46 67.22,194.55 6.29,410.11 -63.13,223.27 -153.44,464.51 -253.11,671.34 -1.72,3.58 -4.01,7.87 -5.72,11.46l-135.65 315.65c-1.71,3.29 -4.21,7.56 -6.01,10.78l-102.63 206.43c-206.58,402.79 -432.77,763.25 -698.57,1112.76 -45.3,59.55 -180.52,110.09 -252.64,142.83l-81.09 24.91c-4.72,1.34 -9.46,2.37 -14.09,3.76 -28.65,8.61 -37,13.16 -62.7,23.7 -122.13,50.18 -272.11,79.66 -390.78,129.99 -355.82,150.93 -582.88,330.69 -775.72,610.1 -55.28,80.09 -106.67,169.07 -136.4,262.46l-160.94 477.06c-55.03,186.45 -1028.22,690.49 -1260.88,813.79 -77.09,40.84 -155.46,70.29 -238.92,109.12 -238.17,110.8 -471.52,236.68 -724.92,311.45 -94.32,27.83 -166.24,55.69 -264.95,84.99l-548.62 144.79c-288.02,76.56 -315.61,46.11 -563.03,-35.83 -606.48,-200.83 -987.18,-401.43 -1705.03,-403.8 -710.1,-2.34 -667.4,243.99 -1154.59,9.47 -328.69,-158.23 -640.78,-292.14 -990.11,-417.86l-527.4 -170.3c-241.14,-83.78 -537.14,-175.52 -673.28,-376.4 -319.98,-472.15 -612.57,-1017.67 -968.26,-1445.86 -220.34,-265.25 -430.89,-471.42 -692,-696.86 -181.02,-156.28 -440.73,-331.09 -585.94,-458.55 -61.39,-53.88 -77.25,-155.56 -108.26,-233.81 -31.53,-79.62 -59.4,-183.02 -86.74,-256.69 -17.48,-47.1 -18.48,-87.57 -37.73,-135.64 -20.52,-51.24 -29.28,-48.51 -51.89,-115.47 -111.99,-331.6 -282.86,-676.06 -341.1,-1026.98l-130.82 -547.35c-134.62,-935.23 -208.96,-529.51 115.86,-1349.43 34.69,-87.57 50.73,-173.65 84.8,-261.47 217.27,-559.99 251.37,-1232.61 248.91,-1818.48 -1.12,-268.21 -50.93,-399.27 42.64,-600.01 76.82,-164.79 150.84,-307.46 224.81,-464.87 80.12,-170.49 148.69,-301.76 238.16,-453.66 44.93,-76.26 91.99,-138.03 133.64,-212.24 45.97,-81.92 88.97,-138.97 136.52,-207.24 103.21,-148.18 193.12,-258.76 297.27,-393.36 101.78,-131.55 205.27,-238.83 312.1,-378.34 103.12,-134.65 196.21,-260.82 305.76,-384.87 58.68,-66.42 95.79,-115.61 156.71,-188.74 70.51,-84.65 946.68,-535.88 1107.77,-624.38 149.76,-82.28 298.6,-157.94 461.14,-233.44 171.29,-79.55 288.04,-149.3 465.51,-228.73 74.47,-33.33 147.24,-75.77 234.41,-112.02 73.77,-30.68 164.44,-72.91 239.23,-104.63 672.34,-285.22 450.2,-201.61 1078.07,-93.66 258,44.37 515.76,68.96 783.4,72.69zm8054.11 3857.53c19.89,45.54 69.92,89.18 145.18,261.53 67.87,155.46 165.63,372.5 90.53,574.41 13.2,290.9 -167.77,816.52 -239.41,1094.57 -54.52,-95.63 17.61,-485.49 9.74,-620.81 -12.54,-215.45 -137.23,-907.07 -188.23,-1142.19l-123.31 -461.39c6.48,-94.1 -5.41,-22.92 19.51,-56.51 62.23,46.16 54.27,92.08 99.32,138.72l186.67 211.67zm-13279.28 -1678.7c14.14,39.95 24.48,38.13 -16.11,20.13 -3.53,69.97 16.85,-0.24 -10.49,40.92 -23.09,34.71 3.01,5.04 -35.23,17.58 -4.79,26.68 1.2,31.23 -23.26,61.07 -40.66,49.6 -13.27,20.6 -56.24,31.92 -0.46,73.72 -6.43,39.76 -58.54,112.65 -11,15.39 -21.73,35.84 -37.41,49.2 -28.09,23.95 -9.49,13.65 -46.8,24.07 14.41,37.29 27.65,37.95 -11.32,22.43 -1.58,89.93 12.56,35.76 -37.69,49.76 1.3,68.87 -138.17,261.48 -183.97,332.87 -130.18,202.91 -250.56,437.31 -349.97,651.97 -30.5,65.84 -118.6,275.29 -169.32,304.39 -101.25,-193.56 33.98,-1250.83 250.9,-1362.47 15.01,-59.45 38.68,-82.83 80.72,-131.39l18.78 -25.07 11.19 -21.67c-7.67,-27.03 -13.19,-21.2 15.51,-18.33 -4.36,-29.6 -12.65,-25.32 15.7,-21.15 161.34,-296.26 1045.4,-843.99 1240.17,-875.17 -24.97,83.84 -407.07,541.94 -511.58,667.17 -38.1,45.66 -37.63,54.9 -85.04,69.12zm11135.05 -873.94c41.06,-14.69 39.18,-25.81 23.58,14.21 39.24,-15.11 39.02,-26.58 21.6,12.25 66.27,-17.27 24.56,-9.77 33.7,18.94 37.56,-13.54 35.65,-23.9 22.32,12.84 98.04,-3.96 32.1,4.45 43.73,25.33 49.25,1.97 32.36,-24.99 37.64,33.77 79.27,-19.19 27.81,-7.29 35.56,16.5 122.26,15.11 572.02,414.95 601.27,526.81 53.09,18.85 65.85,47.78 99.43,91.44 33.42,43.42 65.49,63.08 78.03,110.09 31.31,-6.67 20.72,-8.95 11.07,23.13 34.38,-6.99 25.69,-11.34 15.08,22.07 58.02,19.78 -4.08,-11.04 32.42,19.27 3.68,3.06 14.05,13.59 17.41,17.35 104.81,116.83 403.99,586.74 419.17,734.21 -143.92,-79.96 -259.05,-198.63 -397.47,-298.83 -61.82,-44.74 -363.76,-228.55 -387.97,-291.84 -66.55,14.44 -29.78,12.44 -32.29,-18.7 -42.02,13.74 -40.63,23.8 -20.2,-15.56 -40.27,16.59 -35.47,23.72 -19.55,-16.06 -72.88,19.11 -29.85,10.95 -37.47,-17.25 -46.07,-1.07 -340.91,-149.03 -380.84,-210.61 -72.51,15.55 -32.15,11.91 -34.95,-16.53 -42.97,15.65 -40.44,25.1 -20.5,-16.01 -39.44,16.75 -37.01,27.21 -23.09,-12.94 -98.32,15.04 -36.98,-2.16 -48.05,-22.31 -104.1,15.08 -40.85,-0.87 -50.16,-18.22 -41.97,15.53 -40.84,25.45 -19.51,-14.66 -39.56,15.7 -36.62,26.24 -24.21,-13.43 -65.43,18.86 -24.57,11.58 -45.11,-18.15l8.34 7.22c-49.44,0.31 -47.97,15.32 -32.14,-24.08 -285.72,13.9 -960.5,-854.49 -985.23,-1107.35 280.05,21.49 700.93,236.16 962.16,371.4 77.57,40.16 71.92,26.07 96.23,75.7zm-9994.97 -309.29c39.46,-149.19 766.43,-837.61 985.32,-960.54 169.88,-95.43 470.69,-243.33 677.33,-291.4 168.64,-39.23 774.09,-42.98 878,40.06 -127.13,3.13 -1075.49,461.82 -1295.4,576.54 -194.36,101.42 -1159.35,626.5 -1245.25,635.34zm7231.37 -1421.26c191.02,-16.28 435.76,52.59 571.36,112.96 106.01,47.2 362.81,194.43 384.55,281.55 124.36,84.83 186.08,203.93 269.93,327.1 36.52,53.66 200.36,303.99 201.69,369.18 -120.58,-2.22 -538.09,-152.96 -649.48,-200.12 -409.01,-173.18 -683.13,-382.44 -1119.74,-591.48 -110.83,-53.07 -605.94,-218.86 -569.52,-235.76 120.06,-55.69 734.62,-73.77 911.21,-63.43zm-4186.43 154.02c330.08,-121.45 645.4,-156.95 942.48,-224.19 297.97,-67.44 1153.06,-68.46 1433.88,20.55 107.35,34.01 203.49,29.07 291.9,97.42 -104.39,50.54 -199.08,45.76 -331.71,71.82 -94.63,18.59 -214.58,47.27 -312.89,67.61 -559.31,115.68 -808.63,158.28 -1388.03,112.49 -131.36,-10.38 -576.05,-70.56 -635.63,-145.7zm-988.66 -145.04c-81.53,42.15 -442.85,32.5 -744.73,138.59l-289.06 144.42c-343.21,229.14 -436.85,355.69 -595.16,465.1l-381.86 408.81c-478.38,521.3 -152.48,363.92 -862.11,711.06l-490.51 278.9 -401.43 319.87c-2.58,2.44 -6.27,6 -8.86,8.43l-53.39 50.37c-2.53,2.5 -6.21,6.05 -8.72,8.57 -2.51,2.52 -6.14,6.1 -8.63,8.65l-49.34 54.35c-159.95,182.94 -296.22,406.29 -359.7,640.53l-75.2 220.23c5.26,133.71 -18.21,242.15 -23.29,373.78 -19.7,510.7 78.14,620.59 -96.07,996.75 -81.15,175.26 -135.41,370.27 -206.86,552.95 -34.29,87.66 -54.89,197.77 -92.98,284.06 -184.73,418.47 -203.22,1240.21 -157.41,1715.09 25.13,260.63 88.83,213.71 -109.91,576.31l-283.57 483.04c-2.19,284.9 -265.04,550.38 5.31,1252.63 48.82,126.8 48.74,115.11 124.26,220.04 211.49,293.81 271.29,254.78 437.8,430.05l544.61 344.85c163.88,111.61 199,116.62 275.18,395.32 91.1,333.34 149.82,482.49 335.09,783.4 109.12,177.2 266.3,348.7 403.31,495.75 286.52,307.49 606.22,579.14 972.96,835.7l550.6 355.62 188 260.23c49.53,64.07 189.18,206.54 176.03,237.83l343.07 267.52c430.64,316.5 619.25,286.58 1116.01,345.89 89.78,-30.84 313.31,-29.24 440.36,-60.76 314.88,-78.14 422.6,79.93 816.22,171.42 562.94,130.86 1282.93,280.99 1887.94,190.18 159.26,-23.92 324.03,-36.34 493.5,-12.34 -53.44,-7.59 -9.35,0.29 -27.74,20.77 210.38,6.5 622.59,145.53 1050.59,86.96 92.37,-12.65 154.73,-16.69 249.46,-29.12 284.99,-37.42 537.87,-86.49 802.76,-188.16 36.45,-13.99 69.48,-19.64 105.48,-33.47l273.07 -143.02c39.66,-23.67 48.3,-33.76 81.38,-57.13l162.03 -132.14c133.47,-105.92 296,-317.06 369.23,-476.94l109.65 -181.62 -29.77 -9.6c34.9,-74.04 49.98,-136.47 79.87,-218.25 92.61,-253.38 49.68,-141.75 456.13,-442.38 216.56,-160.17 608.55,-499.72 813.35,-691.57l441.06 -475.58c117.49,-143.17 158.68,-231.7 298.57,-303.75 132.65,-68.31 344.74,-221.42 375.12,-230.87 44.52,-68.71 111.3,-116.65 173.31,-174.87 66.7,-62.63 107.62,-110.56 161.14,-182.83 15.24,-20.6 21.75,-31.44 35.48,-50.25 2.27,-3.11 5.12,-7.31 7.45,-10.4 2.31,-3.08 5.36,-7.12 7.71,-10.17l23.93 -28.98c282.71,-353.75 390.41,-665.33 459.83,-1107.54 17.98,-114.47 -3.35,-238.3 18.07,-349.93 -8.21,-105.32 -10.93,-192.48 -24.55,-289.76 -36.76,-262.41 66.38,-414.49 99.31,-780.91 17.41,-193.67 33.09,-393.25 17.85,-595.26 -6.66,-88.3 -22.63,-178.36 -49.75,-254.24 -38.02,-106.33 -41.34,-121.96 -86.21,-205.56 -134.83,-251.23 -204.24,-699.87 -111.88,-1018.12 25.39,-87.5 29.95,-175.56 51.51,-260.09 19.9,-78.01 42.42,-143.99 63.68,-228.23l125.45 -483.08c18.47,-90.96 30.96,-223.35 51.92,-334.41 65.51,-347.03 -134.3,-729.54 -347.71,-998.07 -17.6,-22.15 -27.59,-31.51 -48.59,-55.28 -2.37,-2.69 -5.82,-6.45 -8.17,-9.16 -2.35,-2.69 -5.77,-6.48 -8.1,-9.2l-119.9 -139.75c-37.98,-44.91 -61.35,-66.02 -102.1,-105.92 -80.01,-78.35 -129.43,-109.75 -182.36,-215.68 -45.96,-91.98 -87.43,-180.91 -124.35,-270.59 -111.06,-269.74 -386.56,-696.07 -579.44,-903.38l-190.35 -208.1c-31.39,-31.14 -19.56,-19.8 -55.14,-49.11l-212.21 -187.39c-42.2,-39.02 -62.62,-46.33 -110.97,-80.65l-375.86 -257.84c-200.33,-125.72 -474.71,-230.25 -688.37,-306.6 -512.26,-183.05 -468.6,-65.4 -635.92,-356.07 -87.05,-151.25 -156.07,-274.04 -245.63,-402.61l-275.56 -305c-74.32,-74.26 -253.08,-192.28 -362.06,-231.25 -479.4,-171.39 -538.08,-122.56 -1058.54,-128.09 -20.2,45.57 -74.9,29.36 -140.82,33.46 -633.36,39.32 -339.17,172.27 -1021.99,-28.58 -542.23,-159.5 -1299.58,-141.94 -1885.02,-14.91 -106.39,23.08 -177.15,31.54 -278.4,65.53 -80.2,26.92 -179.08,52.75 -253.55,73.94 -223.11,63.53 -386.7,147.57 -541.41,106.12 -187.53,-50.26 -553.7,-73.32 -593.43,-98.51z"/>
   <path class="fil2" d="M5241.77 14543.49l200.35 9.33c23.61,141.3 -19.33,1581.2 -50.63,1646.05 -22.44,20.57 -92.55,5.8 -144.62,14.11 -48.58,7.74 -22.34,1.68 -43.41,12.72 -40.83,99.1 -20.92,336.34 -24.46,462.92l1047.68 39.69c3.56,-18.86 42.69,-440.08 6.79,-475.09 -33.06,-32.23 -159.01,-4.66 -190.58,-34.83 -2.2,-3.59 -4.28,-13.76 -4.81,-11.59l31.13 -1449.45c26.65,56.76 68.77,399.86 98.03,515.21l390.65 1450.41c22.33,19.8 599.21,34.31 711.43,31.45l97.63 -20.79c29.54,-25.38 383.74,-1225.98 453.55,-1434.56 35.7,-106.66 95.82,-433.24 133.09,-495.21l-31.6 1461.31c-74.52,25.24 -138.54,9.33 -216.25,14.36l-15.7 483.8c176.09,7.92 1146.15,49.28 1241.46,20.73 6.93,-521.89 86.05,-475.55 -203.78,-480.4l38.89 -1655.07 209.6 3.12c3.74,-38.17 36.16,-438.33 -2.34,-472.37 -67.08,-41.77 -1288.14,-56.94 -1470.14,-53.59 -64.77,296.85 -209.61,687.32 -297.41,1013.58 -19.03,70.72 -34.17,104.29 -52.31,169.75 -8.33,30.04 -11.51,55.96 -20.01,84.35 -29.96,100.09 0.66,50.22 -57.68,80.17l-341.39 -1372.53c-276.83,-5.64 -1294.56,-69.84 -1483.66,-27.49l-9.5 469.91z"/>
   <path class="fil2" d="M6035.73 12648.16c103.63,-20.44 371.68,-10.47 460.13,31.62 98.28,46.78 165.45,149.01 162.71,297.34 -7.27,393.29 -418,319.35 -637.06,311.14l14.22 -640.1zm28.91 -995.67c271.26,-52.43 499.9,14.76 493.74,286.1 -6.96,306.75 -198.96,298.14 -505.34,264.21l11.6 -550.31zm-1025.24 -62.18l211.05 5.7c44.28,169.15 -34.37,1407.32 -46.97,1665.19l-164.2 -4c-115.55,15.98 -68.87,258.58 -72.06,481.8 339.81,35.88 731.51,20.7 1080.86,38.66 657.37,33.79 1460.58,107.75 1484.79,-706.02 12.71,-427.18 -197.12,-508.31 -404.94,-635.17 -4.68,-2.84 -19.06,-12.61 -23.2,-15.4l-24.29 -17.66c18.1,-13.12 6.29,-5.74 36.61,-24.79 81.98,-51.53 165.59,-70.34 241.76,-190.58 152.68,-240.96 166.72,-784.16 -374.46,-952.44 -330.49,-102.78 -1514.5,-118.66 -1927.15,-125.24l-17.8 479.95z"/>
   <path class="fil2" d="M12729.76 15647.01c8.27,13.85 26.32,-12.85 27.59,117.11 2.43,249.93 23.47,886.29 -1.27,1048.49l996.81 0.19 -4.07 -476.28 -164.29 -2.76c-122.6,-13.27 -77.73,-122.85 -80.13,-375.33l1.12 -306.47c1.53,-11.84 4.91,-32.31 9.2,-43.1 14.18,-35.65 8.7,-16.28 22.61,-32.8 28.55,-128.17 176.5,-199.16 268.89,-110.67 84.69,81.09 76.14,241.1 74.8,394.98 -2.74,315.15 -6.93,641.46 1.77,955.94l985.81 4.26 3.01 -505.98 -188.27 -5.39c-49.06,-491.62 76.46,-941.58 -231.82,-1251.95 -111.7,-112.46 -359.49,-200.98 -585.73,-170.22 -288.77,39.28 -412.72,220.18 -500.6,256.58 -88.76,-68.39 -88.18,-106.08 -210.04,-174.31 -92.42,-51.76 -207.21,-74 -334.59,-76.5 -275.71,-5.41 -404.79,150.45 -526.24,264.79l-85.48 -207.11 -740.99 -3.12 -0.23 486.8 169.16 11.8 6.85 881.91 -158 3.81 -4.58 490.07c314.59,16.08 655.18,0.11 972.05,2.42 254.49,1.86 187.8,3.04 187.03,-262.62 -0.13,-45.13 12.31,-191.96 -12.04,-217.35 -29.96,-31.23 -88.45,-7.59 -153.67,-15.33l-63.61 -16.84c-19.99,-105.92 -15.57,-558.68 -6.22,-689.34 19.05,-266.08 332.99,-258.06 325.17,24.32z"/>
   <path class="fil2" d="M8826.21 13340.42c-117.21,160.72 -531.44,131.05 -417.93,-170.48 39.53,-105.03 194.81,-119.34 313.52,-85.85 109.71,30.96 174.25,160.55 104.41,256.33zm-1070.4 -1236c-1.73,53.82 112.98,384.27 144.59,438.76 58.46,-7.21 176.5,-67.35 248.13,-93.4 94.07,-34.21 201.81,-51.58 317.14,-53.22 271.04,-3.89 440.3,52.01 377.38,340.3 -175.35,-241.44 -1241.32,-201.8 -1197.54,608.87 29.64,548.43 858.18,749.98 1228.95,413.76 44.3,-40.18 25.92,-55.5 52.11,-40.37 75.45,35.09 28.84,89.76 109.12,138.49 103.27,34.97 659.8,21.69 818.59,24.09l7.44 -475.71c-318.88,-5.01 -221.85,104.39 -219.9,-720.26 0.82,-346.57 -120.25,-510.66 -332.91,-643.82 -197.11,-123.41 -512.67,-187.82 -821.98,-171.72 -269.57,14.02 -528.94,133.09 -731.12,234.23z"/>
   <path class="fil2" d="M9965.29 16043.69c291.32,-115.56 483.96,212.73 204.17,326.6 -202.08,82.25 -380.31,-62.06 -317.23,-226.2 35.16,-91.5 39.25,-71.13 113.06,-100.4zm-621.44 -539.51c123.58,-11.97 255.19,-148.64 580.63,-150.55 290.82,-1.72 392.25,46.4 378.04,328.39 -29.86,-7.91 -108.85,-57.32 -171.39,-81.69 -75.18,-29.27 -132.16,-37.36 -225.27,-37.45 -429.35,-0.39 -831.05,255.13 -803.05,740.89 27.39,475.02 593.68,651.97 980.28,545.6 179.81,-49.49 193.59,-114.11 309.96,-191.46 25.74,38.89 59.35,107.3 79.82,157.76l841.64 9.91 -2.85 -477.31 -224.7 -11.63c-1.05,-675.87 129.14,-1134.69 -426.67,-1387.52 -217.87,-99.11 -504.27,-156.62 -790.28,-119.61 -216.97,28.08 -534.94,146.28 -676.77,251.72l150.61 422.95z"/>
   <path class="fil2" d="M13531.83 12756.5c0.62,-160.24 112.72,-287.66 277.89,-296.04 233.45,-11.84 293.19,97.12 307.33,294.68l-585.22 1.36zm1256.97 868.33c-19.98,-54.62 -266.8,-322.21 -315.83,-351.28 -151.77,50.11 -204.41,169.08 -548.14,163.69 -237.57,-3.74 -374.03,-99.12 -399.91,-299.17l1233.21 -14.36c331.64,-1349.62 -1582.51,-1536.11 -1939.98,-560.59 -173.26,472.87 11.36,1070.73 489.58,1281.99 499.09,220.48 1191.25,73.12 1481.07,-220.28z"/>
   <path class="fil2" d="M10183.47 12000.73c-257.95,13.44 -208.35,-97.04 -212.23,416.36 -0.87,118.23 76.98,72.2 209.47,81.73l-4.11 617.81c-2.85,307.59 8.37,634.3 213.48,755.25 226.1,133.3 620.35,98.89 869.07,22.74l1.69 -476.02c-274.45,47.68 -369.73,189.56 -366.12,-277.34l10.51 -639.44 363.45 1.06 6.1 -483.31 -365.64 -6.63 -2.47 -567.35c-95.68,12.65 -386.53,107.55 -494.17,143.69 -287.39,96.49 -207.53,-35.88 -229.03,411.45z"/>
   <path class="fil2" d="M11591.74 11664.97l-8.8 351.12 -209.08 2.81 -1.19 485.01 205.14 3.21c99.53,762.22 -303.73,1564.6 826.55,1448.04 341.36,-35.21 266.05,-18.6 266.74,-525.68 -252.35,24.67 -374.29,186.39 -370.23,-222.23 2.19,-219.63 -12.98,-484.27 6.45,-697.51l362.51 -1.06c8.18,-130.68 19.58,-393.07 -12.25,-495.29l-353.5 -2.37 -0.8 -553.48 -711.54 207.43z"/>
   <path class="fil2" d="M15787.73 12222.04l-121.39 -218.12 -736.35 3.96 5.93 480.91 169.41 5.93 18.83 895.85 -158.82 4.65 -4.21 496.53 1094.19 -20.04 1.46 -483.74 -201.11 -10.16c-2.37,-205.28 -31.03,-457.96 43.63,-613.89 76.5,-159.76 269.21,-175.87 496.42,-198.2l-11.54 -670.85c-436.45,-28.12 -511.84,225.74 -596.45,327.17z"/>
   <path class="fil0" d="M2745.3 15546.73l283.57 -483.04c198.74,-362.6 135.04,-315.68 109.91,-576.31 -45.81,-474.88 -27.32,-1296.62 157.41,-1715.09 38.09,-86.29 58.69,-196.4 92.98,-284.06 71.45,-182.68 125.71,-377.69 206.86,-552.95 174.21,-376.16 76.37,-486.05 96.07,-996.75 5.08,-131.63 28.55,-240.07 23.29,-373.78l-167.17 295.66c-12.01,22.88 -24.07,40.14 -38.39,65.11 -28.48,49.59 -39.84,75.12 -62.21,127.37 -44.96,105.01 -163.1,321.11 -212.37,459.67 -12.14,34.14 -10.58,40.68 -25.82,77.46 -80.51,194.25 -152.86,360.95 -204.96,569.76l-88.01 290.55c-35.61,113.12 -48.54,211.79 -75.42,320.04 -51.46,207.35 -89.04,408.79 -117.78,638.27l-62.62 709.6c-27.51,167.23 14.89,861.39 37.08,1076.6l47.58 351.89z"/>
   <polygon class="fil2" points="14996.89,15403.75 15169.8,15423.75 15183.01,16320.58 15032.85,16320.68 15031.18,16817.47 16128.08,16798.37 16115.9,16320.39 15930.74,16306.71 15900.42,14931.29 15003.83,14930.93 "/>
   <path class="fil0" d="M2799.06 15895.81c42.34,114.75 180.08,736.88 260.76,948.48 40.93,107.34 76.11,203.22 114.05,306.76 95.96,157.65 194.05,180.37 367.78,300.2 66.04,45.55 349.4,256.93 411.3,267.27 -3.56,-121.94 -362.44,-1013.37 -437.42,-1292.9 -60.22,-224.52 -137.01,-450.06 -179.8,-685.38 -47.26,-259.85 -97.79,-476.84 -135.94,-736.44 -23.97,11.2 -390.88,667.71 -400.73,892.01z"/>
   <path class="fil0" d="M15909.62 9488.69c44.43,-16.19 32.5,-22.6 32.14,24.08l-8.34 -7.22c87.53,-3.44 39.66,-6.39 45.11,18.15 45.25,-14.44 48.2,-29.27 24.21,13.43 38.73,-16.45 34.78,-24.05 19.51,14.66 97.19,-13.22 42.23,7.5 50.16,18.22 97.95,-8.56 37.97,3.5 48.05,22.31 43.24,-13.98 45.81,-27.98 23.09,12.94 42.16,-17.52 38.05,-25.67 20.5,16.01 69.95,-20.31 25.59,-8.89 34.95,16.53 62.35,1.54 338.87,137.89 380.84,210.61 88,-19.13 31.02,-6.27 37.47,17.25 42.59,-16.92 39.06,-25.17 19.55,16.06 40.1,-16.38 35.86,-24.19 20.2,15.56 71.27,-19.22 24.33,-7.03 32.29,18.7 61.43,3.04 135.67,76.87 263.31,154.84 83.5,51 360.18,292.76 433.83,315.74 -17.82,-140.45 -370.22,-594.31 -380.7,-650.74 -35.05,9.98 -25.08,12.93 -15.08,-22.07 -30.4,8.19 -19.14,9.38 -11.07,-23.13 -81.9,-29.76 -103.82,-98.84 -155.1,-170.84l-22.36 -30.69 -75.01 -64.23c-33.6,-38.3 -32.46,-37.24 -67.16,-72.11 -127.05,-127.68 -145.39,-110.85 -169.59,-138.26 -1.24,-1.41 -3.62,-5.72 -4.86,-7.25 -74.07,-91.59 -183.92,-141.9 -247.84,-196.75 -53.58,-45.97 -23.12,-14.3 -36.81,-48.21 -64.18,6.86 -28.46,6.23 -35.56,-16.5 -55.18,-7.35 -30.59,18.23 -37.64,-33.77 -70.89,1.83 -34.1,-1.31 -43.73,-25.33 -37.6,12.2 -36.42,23.04 -22.32,-12.84 -70.13,10.04 -29.86,8.02 -33.7,-18.94 -38.09,13.74 -37.61,24.9 -21.6,-12.25 -42.72,15.15 -42,27.22 -23.58,-14.21 -31.28,-1.46 -489.4,-232.56 -711.24,-308.09 -88.86,-30.25 -167.63,-64.74 -278.19,-89.34 5.86,147.21 284.67,501.9 373.89,611 70.16,85.79 155.96,169.19 246.03,238.54 84.58,65.14 117.57,100.14 217.03,149.96 4.59,2.3 42.42,21.42 44.87,23.17 34.76,24.83 18.08,6.73 34.45,35.01z"/>
   <path class="fil0" d="M6758.45 21158.15c13.15,-31.29 -126.5,-173.76 -176.03,-237.83l-188 -260.23 -550.6 -355.62c-366.74,-256.56 -686.44,-528.21 -972.96,-835.7 -137.01,-147.05 -294.19,-318.55 -403.31,-495.75 -185.27,-300.91 -243.99,-450.06 -335.09,-783.4 -76.18,-278.7 -111.3,-283.71 -275.18,-395.32l-544.61 -344.85 171.03 361.08c77.21,144.52 147.07,295.7 238.13,433.01l129.9 214.68c230.19,357.9 561.99,822.25 877.43,1127.76 43.52,42.17 64.6,63.19 100.49,107.46l216.57 217.04c2.52,2.52 5.94,6.36 8.48,8.86 11.83,11.73 10.08,10.7 26.58,25.48l844.86 685.86c28.7,21.36 32.73,28.23 58.75,45.67l53.71 33.56c225.66,164.39 366.48,232.67 576.12,366.25 50.16,31.96 82.79,68.04 143.73,81.99z"/>
   <path class="fil0" d="M18352.71 16639.22c35.12,-83.96 43.26,-113.78 68.5,-216.2 8.67,-35.15 21.96,-64.01 34.26,-103.42l83.53 -363.48c18.96,-93.7 22.14,-184.77 40.4,-268.76l96.03 -779.58c2.98,-50.12 -2.48,-100.14 3.71,-150.59 6.38,-52.01 15.26,-63.05 16.81,-137.7 2.2,-105.6 -0.65,-197.54 -11.38,-277.59l-141.48 -1334.94c-32.59,-117.13 -53.89,-320.76 -104.97,-482.99l-125.45 483.08c-21.26,84.24 -43.78,150.22 -63.68,228.23 -21.56,84.53 -26.12,172.59 -51.51,260.09 -92.36,318.25 -22.95,766.89 111.88,1018.12 44.87,83.6 48.19,99.23 86.21,205.56 27.12,75.88 43.09,165.94 49.75,254.24 15.24,202.01 -0.44,401.59 -17.85,595.26 -32.93,366.42 -136.07,518.5 -99.31,780.91 13.62,97.28 16.34,184.44 24.55,289.76z"/>
   <path class="fil0" d="M14175.09 7492.4c-54.74,-77.32 -802.8,-327.1 -955.91,-394.51 -176.59,-10.34 -791.15,7.74 -911.21,63.43 -36.42,16.9 458.69,182.69 569.52,235.76 436.61,209.04 710.73,418.3 1119.74,591.48 111.39,47.16 528.9,197.9 649.48,200.12 -1.33,-65.19 -165.17,-315.52 -201.69,-369.18 -83.85,-123.17 -145.57,-242.27 -269.93,-327.1z"/>
   <path class="fil0" d="M8044.09 7106.87c39.73,25.19 405.9,48.25 593.43,98.51 154.71,41.45 318.3,-42.59 541.41,-106.12 74.47,-21.19 173.35,-47.02 253.55,-73.94 101.25,-33.99 172.01,-42.45 278.4,-65.53 585.44,-127.03 1342.79,-144.59 1885.02,14.91 682.82,200.85 388.63,67.9 1021.99,28.58 65.92,-4.1 120.62,12.11 140.82,-33.46 -83.87,-38.72 -442.95,-105.13 -542.74,-128.58 -90.74,-21.33 -186.93,-22.99 -293.67,-42.74 -559.54,-103.59 -1660.72,-137.72 -2219.21,-53.45 -111.97,16.89 -168.95,27.46 -289.5,41.18 -102.49,11.67 -190,30.43 -297.97,50.03l-1071.53 270.61z"/>
   <path class="fil0" d="M6114.18 20309.5c-14.37,-71.31 -1.47,-31.97 -41.69,-88.49l-455.29 -718.05c-2.09,-2.96 -5.03,-7.1 -7.11,-10.06l-69.53 -102.98c-3.07,-3.97 -12.32,-14.62 -15.45,-18.48 -144.38,-178.49 -254.4,-333.99 -421.01,-511.36l-514.52 -475.2c-68.83,-57 -235.28,-199.04 -303.3,-218.86l229.84 625.76 265.49 355.04c87.02,127.81 362.77,428.04 484.99,506.41l70.84 62.87c86.83,97.25 654.49,559.45 776.74,593.4z"/>
   <path class="fil0" d="M5987.81 8519.15c85.9,-8.84 1050.89,-533.92 1245.25,-635.34 219.91,-114.72 1168.27,-573.41 1295.4,-576.54 -103.91,-83.04 -709.36,-79.29 -878,-40.06 -206.64,48.07 -507.45,195.97 -677.33,291.4 -218.89,122.93 -945.86,811.35 -985.32,960.54z"/>
   <path class="fil0" d="M4204.18 9841.26c4.88,29.05 12.67,24.21 -15.7,21.15 4.4,28.84 12.28,25.47 -15.51,18.33 7,27.1 14.8,22.79 -11.19,21.67 4.37,32.07 12.69,25.41 -18.78,25.07 -42.04,48.56 -65.71,71.94 -80.72,131.39 -49.79,213.33 -199.25,358.67 -229.59,863.86 -3.91,65.16 -1.12,123.39 -1.66,187.62 -0.61,72.72 -16.6,125.63 28.2,175.66l655.41 -1153.9c4.2,-86.84 -10.38,-37.5 37.69,-49.76 -12.93,-35.96 -25.51,-36.04 11.32,-22.43 10.04,-53.65 25.99,-64.12 53.07,-101.41 7.98,-10.99 33.31,-45.28 37.67,-49.66 56.72,-57.04 10.29,-18.32 52.01,-34.85 6.11,-36.51 -8.58,-21.62 24.8,-60.41 42.13,-48.95 30,-24.5 54.7,-32.58 -4.44,-72.74 15.41,-51.59 45.72,-58.5 -15.8,-38.47 -24.51,-34.74 16.11,-20.13 1.79,-79.27 21.88,-45.22 120.28,-169.73l128.84 -169.48c33.81,-55.62 179.7,-190.7 252.09,-318.27 -150.08,51 -272.84,144.67 -383.99,209.59 -33.61,19.63 -42.42,25.72 -74.78,45.44 -63.79,38.86 -91.6,60.8 -146.55,96.99 -104.31,68.71 -394.5,278.5 -464.27,384.38 -34.84,52.89 -6.16,44.26 -75.17,59.96z"/>
   <path class="fil0" d="M9032.75 7251.91c59.58,75.14 504.27,135.32 635.63,145.7 579.4,45.79 828.72,3.19 1388.03,-112.49 98.31,-20.34 218.26,-49.02 312.89,-67.61 132.63,-26.06 227.32,-21.28 331.71,-71.82 -88.41,-68.35 -184.55,-63.41 -291.9,-97.42 -280.82,-89.01 -1135.91,-87.99 -1433.88,-20.55 -297.08,67.24 -612.4,102.74 -942.48,224.19z"/>
   <path class="fil0" d="M15031.46 20926.19c67.78,-38.19 118.62,-68.7 182.37,-114.13 310.71,-221.45 727.53,-522.22 1008.51,-791.44l17.59 -16.99c3.64,-3.47 14.34,-13.16 17.98,-16.61l453.2 -463c2.4,-2.64 5.92,-6.32 8.34,-8.94l361.75 -432.91c25.41,-33.46 43.1,-52.82 69.06,-86.37l89.03 -118.18c2.22,-2.85 5.34,-6.82 7.49,-9.75l219.01 -313.68c-30.38,9.45 -242.47,162.56 -375.12,230.87 -139.89,72.05 -181.08,160.58 -298.57,303.75l-441.06 475.58c-204.8,191.85 -596.79,531.4 -813.35,691.57 -406.45,300.63 -363.52,189 -456.13,442.38 -29.89,81.78 -44.97,144.21 -79.87,218.25l29.77 9.6z"/>
   <path class="fil0" d="M3222.18 13825.22c-1.37,187.45 -11.39,525.28 41.6,664.83 140.53,-76.56 358.77,-1020.27 387.66,-1142.4 61.64,-260.48 178.45,-1254.5 73.84,-1400.33 -94.46,107.08 -260.51,681.57 -322.94,858.54 -111.99,317.43 -176.47,628.41 -180.16,1019.36z"/>
   <path class="fil2" d="M12247.59 22005.74c-38.33,67.64 -8.41,10.82 2.03,34.6 175.84,47.87 672.95,28.74 866.8,0.95 249.02,-35.69 510.14,-95.35 734.58,-168.71 223.78,-73.13 427.98,-190.28 580.72,-320.78 259.1,-221.39 249.88,-284.91 395.5,-491.33l-579.25 295.17c-483.26,247.93 -1447.94,580.17 -2000.38,650.1z"/>
   <path class="fil0" d="M6658.86 20820c172.04,279.19 424.01,500.09 763.39,657.2 142.29,65.87 360.61,161.6 548.9,170.01 147.83,6.59 537,34.7 652.15,-59.64 -86.64,-73.37 -844.44,-380.83 -941.71,-423.62 -144.37,-63.51 -347.19,-136.53 -511.15,-171.02 -226.8,-47.71 -428.66,-166.78 -511.58,-172.93z"/>
   <path class="fil0" d="M9091.13 21626.56c3.27,2.09 -2.36,23.38 106.93,56.71 471.01,143.6 430.34,137.28 975.04,245.1 326.93,64.71 945.79,81.79 1291.01,31.94 -14,-5.1 10.89,-14.08 -108.78,-51.89 -575.56,-181.83 -951.25,-378.46 -1637.68,-360.35 -135.03,3.55 -525.09,36.98 -626.52,78.49z"/>
   <path class="fil0" d="M12247.59 22005.74c552.44,-69.93 1517.12,-402.17 2000.38,-650.1l579.25 -295.17c22.23,-80.22 54.81,-116.47 80.2,-185.57 24.12,-65.6 32.48,-133.68 52.72,-187.8 -66.85,14.75 -260.28,156.39 -331.78,200.98 -298.62,186.31 -726.8,406.24 -1050.32,561.93 -499.97,240.58 -973.63,392.87 -1590.97,543.91 40.61,-20.73 80.8,20.66 131.06,28.17 75.38,11.27 45.87,-12.02 129.46,-16.35z"/>
   <path class="fil2" d="M15420.59 14001.28c-523.01,117.42 -367.86,851.3 210.01,741.12 190.87,-36.39 379.9,-223.3 301.18,-462.83 -57.36,-174.5 -254.3,-335.97 -511.19,-278.29z"/>
   <path class="fil0" d="M8217.53 21771.56l578.09 160.59c153.9,25.71 218.42,57.21 426.38,85.91 91.28,12.59 128.21,26.71 222.32,42.76l939.09 90.12c170.84,1.15 341.62,4.05 512.41,5.63 168.02,1.56 746.58,-61.81 931.99,-75.74 18.39,-20.48 -25.7,-28.36 27.74,-20.77 -169.47,-24 -334.24,-11.58 -493.5,12.34 -605.01,90.81 -1325,-59.32 -1887.94,-190.18 -393.62,-91.49 -501.34,-249.56 -816.22,-171.42 -127.05,31.52 -350.58,29.92 -440.36,60.76z"/>
   <path class="fil0" d="M15245.66 20286.58l539.8 -422.29c66.97,-57.26 120.25,-100.95 189.23,-156.85l156.89 -135.77c2.85,-2.3 6.73,-5.68 9.51,-8.05l445.81 -452.97c20.33,-22.18 5.11,-3.29 23.99,-26.29l13.95 -18.21c43.3,-59.67 -11.87,9.78 17.93,-27.99l-242.81 82.28c-275.4,85.66 -435.6,155.46 -665.45,335.66 -206.47,161.86 -461.13,617.6 -488.85,830.48z"/>
   <path class="fil0" d="M18362.72 12217.02l-278.09 -759.1 -49.87 -62.59c-12.43,-26.48 -17.21,-45.03 -31.68,-73.9 -25.38,-50.68 -44.72,-82.32 -62.74,-152.02 -45.05,-46.64 -37.09,-92.56 -99.32,-138.72 -24.92,33.59 -13.03,-37.59 -19.51,56.51l123.31 461.39c51,235.12 175.69,926.74 188.23,1142.19 7.87,135.32 -64.26,525.18 -9.74,620.81 71.64,-278.05 252.61,-803.67 239.41,-1094.57z"/>
   <path class="fil0" d="M6021.51 13288.26c219.06,8.21 629.79,82.15 637.06,-311.14 2.74,-148.33 -64.43,-250.56 -162.71,-297.34 -88.45,-42.09 -356.5,-52.06 -460.13,-31.62l-14.22 640.1z"/>
   <path class="fil0" d="M17771.03 18048.12c45.37,-134.51 153.26,-305.59 218.76,-455.45 53.08,-121.47 141.07,-350.6 204.77,-460.95 15.53,-193.62 39.73,-320.93 31.99,-533.87 -41.67,23.46 -47.79,21.54 -76.65,105.8 -13.83,40.39 -25.6,94.2 -38.17,137.53 -23.23,80.04 -75.31,166.22 -108.86,251.72 -153.55,391.16 -402.68,831.75 -618.36,1191.15 -49.21,82.01 -101.41,153.03 -133.85,238.24 109.49,-20.02 211.21,-136.63 285.74,-209.52 157.65,-154.21 138.87,-161.33 234.63,-264.65z"/>
   <path class="fil0" d="M16024.79 8699.44c-8.53,-11.32 -13.75,-20.37 -27.56,-35.59 -128.88,-141.94 -825.08,-621.66 -1005.71,-736.11 -132.04,-83.66 -419.51,-257.27 -536.65,-293.58 89.56,128.57 158.58,251.36 245.63,402.61 167.32,290.67 123.66,173.02 635.92,356.07 213.66,76.35 488.04,180.88 688.37,306.6z"/>
   <path class="fil0" d="M4680.66 9253.75l490.51 -278.9c709.63,-347.14 383.73,-189.76 862.11,-711.06l381.86 -408.81c-40.91,11.62 -76.85,44.79 -114.29,71.72 -254.39,182.97 -388.37,250.31 -688.55,488.89l-87.35 68.42c-2.82,2.23 -6.85,5.4 -9.67,7.64 -141.67,112.74 -460.69,383.68 -586.23,520.8 -17.89,19.54 -33.75,32.48 -53.13,50.62l-96.23 94.02c-37.1,41.78 -59.25,65.23 -99.03,96.66z"/>
   <path class="fil0" d="M6053.04 12202.8c306.38,33.93 498.38,42.54 505.34,-264.21 6.16,-271.34 -222.48,-338.53 -493.74,-286.1l-11.6 550.31z"/>
   <path class="fil0" d="M18243.92 15977.37c125.95,-470.99 184.84,-1014.78 -57.35,-1468.39 -27.62,-51.72 -49.21,-131.66 -85.99,-165.93 -19.91,283.94 49.6,1467.7 143.34,1634.32z"/>
   <path class="fil3" d="M4743.5 19166.95c245.22,313.27 1174.54,1160.67 1460.84,1240.23 -6.68,-61.53 -15.58,-68.71 -46.5,-113.34l-317.18 -510.62c-2.08,-3.07 -4.89,-7.32 -6.96,-10.39l-128.22 -199.08c-2.08,-3.07 -4.76,-7.34 -6.77,-10.48l-139.67 -205.56c-344.02,-475.94 -566.44,-682.68 -1011.92,-1051.78 -83.43,-69.11 -223.79,-210.73 -329.66,-237.42 8,188.76 216.45,666.4 302.13,787.42 78.75,111.21 141.12,205.24 223.91,311.02zm873.7 336.01l455.29 718.05c40.22,56.52 27.32,17.18 41.69,88.49 -122.25,-33.95 -689.91,-496.15 -776.74,-593.4l-70.84 -62.87c-122.22,-78.37 -397.97,-378.6 -484.99,-506.41l-265.49 -355.04 -229.84 -625.76c68.02,19.82 234.47,161.86 303.3,218.86l514.52 475.2c166.61,177.37 276.63,332.87 421.01,511.36 3.13,3.86 12.38,14.51 15.45,18.48l69.53 102.98c2.08,2.96 5.02,7.1 7.11,10.06z"/>
   <path class="fil3" d="M15909.62 9488.69c-15.83,39.4 -17.3,24.39 32.14,24.08 0.36,-46.68 12.29,-40.27 -32.14,-24.08 -16.37,-28.28 0.31,-10.18 -34.45,-35.01 -2.45,-1.75 -40.28,-20.87 -44.87,-23.17 -99.46,-49.82 -132.45,-84.82 -217.03,-149.96 -90.07,-69.35 -175.87,-152.75 -246.03,-238.54 -89.22,-109.1 -368.03,-463.79 -373.89,-611 110.56,24.6 189.33,59.09 278.19,89.34 221.84,75.53 679.96,306.63 711.24,308.09 -18.42,41.43 -19.14,29.36 23.58,14.21 -16.01,37.15 -16.49,25.99 21.6,12.25 3.84,26.96 -36.43,28.98 33.7,18.94 -14.1,35.88 -15.28,25.04 22.32,12.84 9.63,24.02 -27.16,27.16 43.73,25.33 7.05,52 -17.54,26.42 37.64,33.77 7.1,22.73 -28.62,23.36 35.56,16.5 13.69,33.91 -16.77,2.24 36.81,48.21 63.92,54.85 173.77,105.16 247.84,196.75 1.24,1.53 3.62,5.84 4.86,7.25 24.2,27.41 42.54,10.58 169.59,138.26 34.7,34.87 33.56,33.81 67.16,72.11l75.01 64.23 22.36 30.69c51.28,72 73.2,141.08 155.1,170.84 -8.07,32.51 -19.33,31.32 11.07,23.13 -10,35 -19.97,32.05 15.08,22.07 10.48,56.43 362.88,510.29 380.7,650.74 -73.65,-22.98 -350.33,-264.74 -433.83,-315.74 -127.64,-77.97 -201.88,-151.8 -263.31,-154.84 -7.96,-25.73 38.98,-37.92 -32.29,-18.7 15.66,-39.75 19.9,-31.94 -20.2,-15.56 19.51,-41.23 23.04,-32.98 -19.55,-16.06 -6.45,-23.52 50.53,-36.38 -37.47,-17.25 -41.97,-72.72 -318.49,-209.07 -380.84,-210.61 -9.36,-25.42 35,-36.84 -34.95,-16.53 17.55,-41.68 21.66,-33.53 -20.5,-16.01 22.72,-40.92 20.15,-26.92 -23.09,-12.94 -10.08,-18.81 49.9,-30.87 -48.05,-22.31 -7.93,-10.72 47.03,-31.44 -50.16,-18.22 15.27,-38.71 19.22,-31.11 -19.51,-14.66 23.99,-42.7 21.04,-27.87 -24.21,-13.43 -5.45,-24.54 42.42,-21.59 -45.11,-18.15 20.54,29.73 -20.32,37.01 45.11,18.15 -12.41,39.67 -15.35,29.13 24.21,13.43 -21.33,40.11 -22.46,30.19 19.51,14.66 9.31,17.35 -53.94,33.3 50.16,18.22 11.07,20.15 -50.27,37.35 48.05,22.31 -13.92,40.15 -16.35,29.69 23.09,12.94 -19.94,41.11 -22.47,31.66 20.5,16.01 2.8,28.44 -37.56,32.08 34.95,16.53 39.93,61.58 334.77,209.54 380.84,210.61 7.62,28.2 -35.41,36.36 37.47,17.25 -15.92,39.78 -20.72,32.65 19.55,16.06 -20.43,39.36 -21.82,29.3 20.2,15.56 2.51,31.14 -34.26,33.14 32.29,18.7 24.21,63.29 326.15,247.1 387.97,291.84 138.42,100.2 253.55,218.87 397.47,298.83 -15.18,-147.47 -314.36,-617.38 -419.17,-734.21 -3.36,-3.76 -13.73,-14.29 -17.41,-17.35 -36.5,-30.31 25.6,0.51 -32.42,-19.27 10.61,-33.41 19.3,-29.06 -15.08,-22.07 9.65,-32.08 20.24,-29.8 -11.07,-23.13 -12.54,-47.01 -44.61,-66.67 -78.03,-110.09 -33.58,-43.66 -46.34,-72.59 -99.43,-91.44 -29.25,-111.86 -479.01,-511.7 -601.27,-526.81 -7.75,-23.79 43.71,-35.69 -35.56,-16.5 -5.28,-58.76 11.61,-31.8 -37.64,-33.77 -11.63,-20.88 54.31,-29.29 -43.73,-25.33 13.33,-36.74 15.24,-26.38 -22.32,-12.84 -9.14,-28.71 32.57,-36.21 -33.7,-18.94 17.42,-38.83 17.64,-27.36 -21.6,-12.25 15.6,-40.02 17.48,-28.9 -23.58,-14.21 -24.31,-49.63 -18.66,-35.54 -96.23,-75.7 -261.23,-135.24 -682.11,-349.91 -962.16,-371.4 24.73,252.86 699.51,1121.25 985.23,1107.35z"/>
   <path class="fil3" d="M4204.18 9841.26c-28.35,-4.17 -20.06,-8.45 -15.7,21.15 -28.7,-2.87 -23.18,-8.7 -15.51,18.33l-11.19 21.67 -18.78 25.07c31.47,0.34 23.15,7 18.78,-25.07 25.99,1.12 18.19,5.43 11.19,-21.67 27.79,7.14 19.91,10.51 15.51,-18.33 28.37,3.06 20.58,7.9 15.7,-21.15 69.01,-15.7 40.33,-7.07 75.17,-59.96 69.77,-105.88 359.96,-315.67 464.27,-384.38 54.95,-36.19 82.76,-58.13 146.55,-96.99 32.36,-19.72 41.17,-25.81 74.78,-45.44 111.15,-64.92 233.91,-158.59 383.99,-209.59 -72.39,127.57 -218.28,262.65 -252.09,318.27l-128.84 169.48c-98.4,124.51 -118.49,90.46 -120.28,169.73 -40.62,-14.61 -31.91,-18.34 -16.11,20.13 -30.31,6.91 -50.16,-14.24 -45.72,58.5 -24.7,8.08 -12.57,-16.37 -54.7,32.58 -33.38,38.79 -18.69,23.9 -24.8,60.41 -41.72,16.53 4.71,-22.19 -52.01,34.85 -4.36,4.38 -29.69,38.67 -37.67,49.66 -27.08,37.29 -43.03,47.76 -53.07,101.41 -36.83,-13.61 -24.25,-13.53 -11.32,22.43 -48.07,12.26 -33.49,-37.08 -37.69,49.76l-655.41 1153.9c-44.8,-50.03 -28.81,-102.94 -28.2,-175.66 0.54,-64.23 -2.25,-122.46 1.66,-187.62 30.34,-505.19 179.8,-650.53 229.59,-863.86 -216.92,111.64 -352.15,1168.91 -250.9,1362.47 50.72,-29.1 138.82,-238.55 169.32,-304.39 99.41,-214.66 219.79,-449.06 349.97,-651.97 45.8,-71.39 185.27,-264 183.97,-332.87 50.25,-14 36.11,40.17 37.69,-49.76 38.97,15.52 25.73,14.86 11.32,-22.43 37.31,-10.42 18.71,-0.12 46.8,-24.07 15.68,-13.36 26.41,-33.81 37.41,-49.2 52.11,-72.89 58.08,-38.93 58.54,-112.65 42.97,-11.32 15.58,17.68 56.24,-31.92 24.46,-29.84 18.47,-34.39 23.26,-61.07 38.24,-12.54 12.14,17.13 35.23,-17.58 27.34,-41.16 6.96,29.05 10.49,-40.92 40.59,18 30.25,19.82 16.11,-20.13 47.41,-14.22 46.94,-23.46 85.04,-69.12 104.51,-125.23 486.61,-583.33 511.58,-667.17 -194.77,31.18 -1078.83,578.91 -1240.17,875.17z"/>
   <path class="fil3" d="M15245.66 20286.58c27.72,-212.88 282.38,-668.62 488.85,-830.48 229.85,-180.2 390.05,-250 665.45,-335.66l242.81 -82.28c-29.8,37.77 25.37,-31.68 -17.93,27.99l-13.95 18.21c-18.88,23 -3.66,4.11 -23.99,26.29l-445.81 452.97c-2.78,2.37 -6.66,5.75 -9.51,8.05l-156.89 135.77c-68.98,55.9 -122.26,99.59 -189.23,156.85l-539.8 422.29zm-46.23 72.17c95.07,-17.54 646.81,-491.49 756.92,-582.51 2.75,-2.26 6.84,-5.4 9.51,-7.73l25.86 -25.63c2.49,-2.53 5.72,-6.48 8.22,-9 3.52,-3.57 13.52,-14.04 17.19,-17.5l294.49 -259.23c174.02,-165.37 208.93,-220.24 347.73,-377.95 38.58,-43.83 50.67,-38.02 64.26,-108.17 -112.07,18.34 -408.45,139.99 -556.47,190.58 -316.44,108.14 -636.62,396.64 -784.28,664.77 -48.04,87.24 -182.17,418.46 -183.43,532.37z"/>
   <path class="fil0" d="M13531.83 12756.5l585.22 -1.36c-14.14,-197.56 -73.88,-306.52 -307.33,-294.68 -165.17,8.38 -277.27,135.8 -277.89,296.04z"/>
   <path class="fil0" d="M8826.21 13340.42c69.84,-95.78 5.3,-225.37 -104.41,-256.33 -118.71,-33.49 -273.99,-19.18 -313.52,85.85 -113.51,301.53 300.72,331.2 417.93,170.48z"/>
   <path class="fil0" d="M9965.29 16043.69c-73.81,29.27 -77.9,8.9 -113.06,100.4 -63.08,164.14 115.15,308.45 317.23,226.2 279.79,-113.87 87.15,-442.16 -204.17,-326.6z"/>
   <path class="fil4" d="M12729.76 15647.01l12.04 898.63c0.81,48.88 -8.16,234.68 18.72,263.4 39.08,41.73 952.76,22.53 1001.21,22.3 15.79,-98.34 18.97,-433.1 -7.84,-524.17l-222.99 0.12 6.43 -731.23c-13.91,16.52 -8.43,-2.85 -22.61,32.8 -4.29,10.79 -7.67,31.26 -9.2,43.1l-1.12 306.47c2.4,252.48 -42.47,362.06 80.13,375.33l164.29 2.76 4.07 476.28 -996.81 -0.19c24.74,-162.2 3.7,-798.56 1.27,-1048.49 -1.27,-129.96 -19.32,-103.26 -27.59,-117.11z"/>
   <path class="fil2" d="M14175.09 7492.4c-21.74,-87.12 -278.54,-234.35 -384.55,-281.55 -135.6,-60.37 -380.34,-129.24 -571.36,-112.96 153.11,67.41 901.17,317.19 955.91,394.51z"/>
   <path class="fil5" d="M17771.03 18048.12c3.05,-2.68 7.5,-6.21 9.41,-7.79 1.93,-1.59 7.47,-5.43 9.83,-7.41 2.37,-2 7.05,-5.47 9.65,-7.75 3.64,-3.2 14.67,-13.28 18.3,-16.96 32.7,-33.2 19.6,-20.93 39.19,-51.21l131.27 -215.26c68.62,-147.06 215.06,-455.33 205.88,-610.02 -63.7,110.35 -151.69,339.48 -204.77,460.95 -65.5,149.86 -173.39,320.94 -218.76,455.45z"/>
   <path class="fil2" d="M17940.34 11169.41c18.02,69.7 37.36,101.34 62.74,152.02 14.47,28.87 19.25,47.42 31.68,73.9l49.87 62.59c-2.51,-5.12 -9.72,-24.33 -9.36,-27.61 8.32,-74.34 -23.78,19.7 2,-23.3 31.44,-52.46 -4.04,-10.43 49.74,-25.93l-186.67 -211.67z"/>
  </g>
  <path class="fil0 str0" d="M18084.63 11457.92l278.09 759.1c75.1,-201.91 -22.66,-418.95 -90.53,-574.41 -75.26,-172.35 -125.29,-215.99 -145.18,-261.53 -53.78,15.5 -18.3,-26.53 -49.74,25.93 -0.21,0.35 -0.41,0.69 -0.62,1.02 0.16,4.64 -0.21,11.78 -1.38,22.28 -0.36,3.28 6.85,22.49 9.36,27.61z"/>
  <path class="fil0 str0" d="M18076.65 11408.03c-21.13,34.7 -0.96,-27.97 0,0zm-1.38 22.28c1.17,-10.5 1.54,-17.64 1.38,-22.28 0.21,-0.33 0.41,-0.67 0.62,-1.02 31.44,-52.46 -4.04,-10.43 49.74,-25.93l-186.67 -211.67c18.02,69.7 37.36,101.34 62.74,152.02 14.47,28.87 19.25,47.42 31.68,73.9l49.87 62.59c-2.51,-5.12 -9.72,-24.33 -9.36,-27.61z"/>
  <path class="fil0 str0" d="M13219.18 7097.89c153.11,67.41 901.17,317.19 955.91,394.51 -21.74,-87.12 -278.54,-234.35 -384.55,-281.55 -135.6,-60.37 -380.34,-129.24 -571.36,-112.96z"/>
  <path class="fil0 str0" d="M3059.82 16844.29c-80.68,-211.6 -218.42,-833.73 -260.76,-948.48l-36.26 88.02c-17.53,103.56 -3.37,207.94 22.96,293.8 33.65,109.79 4.52,66.5 5.11,178.62 0.58,113.66 30.33,209.61 76.77,299.85 202.13,392.73 176.67,269.37 288.42,419.16 21.52,-17 17.44,23.8 17.81,-24.21 -37.94,-103.54 -73.12,-199.42 -114.05,-306.76z"/>
  <path class="fil0 str0" d="M14247.97 21355.64c-483.26,247.93 -1447.94,580.17 -2000.38,650.1 -38.33,67.64 -8.41,10.82 2.03,34.6 175.84,47.87 672.95,28.74 866.8,0.95 249.02,-35.69 510.14,-95.35 734.58,-168.71 223.78,-73.13 427.98,-190.28 580.72,-320.78 259.1,-221.39 249.88,-284.91 395.5,-491.33l-579.25 295.17z"/>
  <path class="fil0 str0" d="M17989.79 17592.67c-65.5,149.86 -173.39,320.94 -218.76,455.45 3.05,-2.68 7.5,-6.21 9.41,-7.79 1.93,-1.59 7.47,-5.43 9.83,-7.41 2.37,-2 7.05,-5.47 9.65,-7.75 3.64,-3.2 14.67,-13.28 18.3,-16.96 32.7,-33.2 19.6,-20.93 39.19,-51.21l131.27 -215.26c68.62,-147.06 215.06,-455.33 205.88,-610.02 -63.7,110.35 -151.69,339.48 -204.77,460.95z"/>
 </g>
</svg>
